<?xml version="1.0" encoding="UTF-8" standalone="no"?>
<!-- Generator: Adobe Illustrator 16.0.0, SVG Export Plug-In . SVG Version: 6.00 Build 0)  -->

<svg
   xmlns:dc="http://purl.org/dc/elements/1.1/"
   xmlns:cc="http://creativecommons.org/ns#"
   xmlns:rdf="http://www.w3.org/1999/02/22-rdf-syntax-ns#"
   xmlns:svg="http://www.w3.org/2000/svg"
   xmlns="http://www.w3.org/2000/svg"
   xmlns:sodipodi="http://sodipodi.sourceforge.net/DTD/sodipodi-0.dtd"
   xmlns:inkscape="http://www.inkscape.org/namespaces/inkscape"
   version="1.1"
   id="Layer_1"
   x="0px"
   y="0px"
   width="399.44299"
   height="426.073"
   viewBox="0 0 399.44299 426.073"
   enable-background="new 0 0 512 512"
   xml:space="preserve"
   sodipodi:docname="pictograma.svg"
   inkscape:version="0.92.3 (2405546, 2018-03-11)"><metadata
   id="metadata9"><rdf:RDF><cc:Work
       rdf:about=""><dc:format>image/svg+xml</dc:format><dc:type
         rdf:resource="http://purl.org/dc/dcmitype/StillImage" /><dc:title></dc:title></cc:Work></rdf:RDF></metadata><defs
   id="defs7" /><sodipodi:namedview
   pagecolor="#ffffff"
   bordercolor="#666666"
   borderopacity="1"
   objecttolerance="10"
   gridtolerance="10"
   guidetolerance="10"
   inkscape:pageopacity="0"
   inkscape:pageshadow="2"
   inkscape:window-width="1869"
   inkscape:window-height="1016"
   id="namedview5"
   showgrid="false"
   inkscape:zoom="0.32593203"
   inkscape:cx="317.64057"
   inkscape:cy="434.52815"
   inkscape:window-x="51"
   inkscape:window-y="27"
   inkscape:window-maximized="1"
   inkscape:current-layer="Layer_1"
   units="px" />

<g
   transform="translate(1076.001,-168.71435)"
   aria-label="5"
   style="font-style:normal;font-weight:normal;font-size:251.03587341px;line-height:1.25;font-family:sans-serif;letter-spacing:0px;word-spacing:0px;fill:#000000;fill-opacity:1;stroke:none;stroke-width:6.27589655"
   id="g854" /><g
   id="g912"
   style="font-style:normal;font-weight:normal;font-size:251.03587341px;line-height:1.25;font-family:sans-serif;letter-spacing:0px;word-spacing:0px;fill:#000000;fill-opacity:1;stroke:none;stroke-width:6.27589655"
   aria-label="5"
   transform="translate(-401.42277,-5609.6067)" /><g
   aria-label=" livros"
   style="font-style:normal;font-weight:normal;font-size:288.42022705px;line-height:1.25;font-family:sans-serif;letter-spacing:0px;word-spacing:0px;fill:#000000;fill-opacity:1;stroke:none;stroke-width:7.21050596"
   id="text916"
   transform="matrix(0.83217367,0,0,0.83217367,1208.9929,4646.6758)"><path
     id="path980"
     style="font-style:normal;font-variant:normal;font-weight:normal;font-stretch:normal;font-family:FiveByFive;-inkscape-font-specification:FiveByFive;fill:#000000;stroke-width:7.21050596"
     d="m -1100.0389,-5458.068 h 31.3795 v 31.3795 h -31.3795 -31.3795 -31.3795 -31.3795 v -31.3795 h 31.3795 31.3795 z m 31.3795,0 v -31.3794 h 31.3795 v 31.3794 z m 0,-31.3794 h -31.3795 -31.3795 -31.3795 -31.3795 v -31.3795 -31.3795 -31.3795 h 31.3795 31.3795 31.3795 31.3795 31.3795 v 31.3795 h -31.3795 -31.3795 -31.3795 -31.3795 v 31.3795 h 31.3795 31.3795 31.3795 z m -320.154,-94.3339 c -35.344,0 -64,28.656 -64,64 v 384 c 0,35.344 28.656,64 64,64 h 416.00001 v -448 h -32.00001 v 416 h -384 c -17.672,0 -32,-14.313 -32,-32 0,-17.687 14.328,-32 32,-32 h 352 v -226.9062 h -32 v 194.9062 h -125.6719 v 0.502 c -0.037,-0.17 -0.083,-0.3338 -0.123,-0.502 h -194.2051 v -256 -32 -64 h 162.3281 v -32 z m 288.7745,125.7133 h 31.3795 v 31.3795 h -31.3795 -31.3795 -31.3795 -31.3795 v -31.3795 h 31.3795 31.3795 z m 31.3795,0 v -31.3794 h 31.3795 v 31.3794 z m 0,-31.3794 h -31.3795 -31.3795 -31.3795 -31.3795 v -31.3795 -31.3795 -31.3795 h 31.3795 31.3795 31.3795 31.3795 31.3795 v 31.3795 h -31.3795 -31.3795 -31.3795 -31.3795 v 31.3795 h 31.3795 31.3795 31.3795 z m -320.154,-94.3339 c -35.344,0 -64,28.656 -64,64 v 384 c 0,35.344 28.656,64 64,64 h 416.00001 v -448 h -32.00001 v 416 h -384 c -17.672,0 -32,-14.313 -32,-32 0,-17.687 14.328,-32 32,-32 h 352 v -226.9062 h -32 v 194.9062 h -125.6719 v 0.502 c -0.037,-0.17 -0.083,-0.3338 -0.123,-0.502 h -194.2051 v -256 -32 -64 h 162.3281 v -32 z"
     inkscape:connector-curvature="0"
     sodipodi:nodetypes="cccccccccccccccccccccccccccccccccccccccssssccccssscccccccccccccscccccccccccccccccccccccccccccccccccccccssssccccssscccccccccccccs" /></g></svg>